<svg width="29" height="36" viewBox="0 0 29 36" fill="none" xmlns="http://www.w3.org/2000/svg">
<path d="M18.4721 34H4.99493C2.74873 34 2 32.698 2 30.4518C2 28.6549 2 14.7284 2 4.99493C2 2.82777 2.74873 2 4.99493 2C10.4856 2 22.066 2 24.462 2C26.7082 2 27.4569 2.74873 27.4569 4.99493V25.2107M18.4721 34H19.2208L27.4569 25.9594V25.2107M18.4721 34V27.4569C18.4721 25.2107 19.9696 25.2107 21.467 25.2107H27.4569M4.99493 10.9848H24.462M4.99493 18.4721H24.462M4.99493 25.9594H15.4772" stroke="#242943" stroke-width="2.5"/>
</svg>
