<svg version="1" xmlns="http://www.w3.org/2000/svg" width="533.333" height="533.333" viewBox="0 0 400.000000 400.000000"><path d="M0 200v200h397.6l-.1-3.5c-.1-1.9.2-3.2.7-2.9.5.3.6 1.4.3 2.4s-.2 2.1.4 2.4c.6.4.9-7.7.8-21.6-.2-17.9-.5-22.2-1.5-22-.8.1-1.1-.2-.7-.8.3-.6 1.1-.7 1.7-.4.6.4.8-.1.6-1.2-.2-1.1-1-1.8-1.7-1.6-.7.1-1-.2-.6-.8.3-.6 1-.8 1.5-.5.4.3.8-2.2.8-5.5s-.4-5.8-.8-5.5c-.5.3-1.2.1-1.5-.5-.4-.6-.1-.9.6-.8.6.2 1.4-.3 1.7-1.1.3-1 0-1.1-.9-.5-1.1.6-1 .3.1-1.1 1.4-1.7 1.3-1.8-.5-1.2-1.7.6-1.8.5-.5-.5.9-.7 1.6-2.8 1.7-4.6 0-2.5-.3-3-1.2-2.2-1.1.9-1.3-.7-1.3-7.9 0-5 .4-9.3.8-9.6.5-.3.7.4.5 1.5-.2 1.1 0 1.8.6 1.5.5-.4.9-1.7.9-3.1 0-1.4-.4-2.3-.9-1.9-.5.3-1.3.1-1.6-.5-.4-.6-.1-.9.6-.8.7.2 1.5-.5 1.7-1.6.2-1.1 0-1.6-.6-1.2-.6.3-1.4.2-1.7-.4-.4-.6-.1-.9.7-.8 1.7.4 2-7.1.4-9.1-.9-1.2-.8-1.3.2-.7 1 .6 1.3.3 1-1-.2-1.1-1-1.8-1.7-1.6-.7.1-1-.2-.6-.8.3-.6 1.1-.8 1.6-.4 1.2.7.8-3.4-.5-5.5-.6-1-.5-1.2.2-.7.8.5 1.2-.1 1.2-1.4 0-1.2-.4-1.9-.9-1.5-.5.3-1.3.1-1.6-.5-.4-.6-.1-.9.6-.8.7.2 1.3-.9 1.4-2.5.2-2.8-.9-3.7-1.9-1.5-.3.7-.5-3.2-.4-8.6 0-8.5.2-9.6 1.3-7.6 1 1.9 1.2.5 1.3-9.3.1-9.7-.1-11.5-1.4-11-.8.3-1.4 0-1.4-.6s.6-1 1.3-.8c.7.1 1.3-1 1.5-2.7.2-1.7 0-2.6-.7-2.2-.5.4-1.3.2-1.6-.4-.4-.6-.1-.9.7-.8 2.1.5 2-11.3-.1-12.9-1.3-1.1-1.3-1.2-.1-.8 1.4.5 1.6-1.5 1.7-14.7.1-10.2-.3-15.8-1-16.7-.9-1.2-.9-1.3.1-.7.9.6 1.2.1 1-1.6-.2-1.2-.7-2.9-1.2-3.7-.6-.9-.5-1.2.1-.8.6.4 1-1.1 1-3.8 0-3-.4-4.5-1.3-4.5-1.5 0-1.6-5.8-.1-6.7.6-.3.7-.1.3.5-.3.6-.2 1.3.3 1.7.6.3.9-3.6.9-10 0-7.7-.4-10.5-1.2-10.2-.8.3-1.3-.8-1.4-3.2-.2-2.5.1-3.2.7-2.2.5.8.7 2.1.4 3-.4 1.2-.2 1.3.4.3 1.3-1.8.9-8.8-.5-8.5-.8.2-1.2-1.6-1.2-5.7 0-4.9.3-5.8 1.5-5.4 2 .8 1.9-.6-.2-2.3-1.6-1.3-1.6-1.4-.1-.9 1.2.3 1.6-.1 1.5-1.4-.1-1.5-.4-1.6-1.5-.8-1.1.9-1.3-.5-1.1-8.6.1-8.5.4-9.6 1.8-9.2 1.4.5 1.4.5.1-.6-1.6-1.3-2.4-8.2-.9-7.3.4.3.6 1.4.4 2.5-.2 1.1 0 2.2.4 2.4.4.3.8-2.2.8-5.6 0-4.2-.2-5.6-.9-4.4-.5.9-.6 2.1-.2 2.8.4.7.3.8-.4.4-1.7-1.1-1.7-36.7.1-38.5 1-1.1 1-1.3 0-.7-.9.5-1.3-.2-1.3-2.3 0-1.6.6-3.2 1.3-3.4.9-.4.9-.6 0-.6-1.7-.1-1.9-21.1-.2-21.1.5 0 .7.6.3 1.2-.4.8-.3 1 .2.5 1.1-1 1.5-8.9.5-8.2-.4.2-.8-.2-.8-1s.3-1.2.7-1c.3.2.7-2.3.8-5.6.2-4.7-.1-5.9-1.3-5.9-.8 0-1.5-.7-1.5-1.5C397 .2 374.3 0 198.5 0H0v200zm398.7-64.5c0 .8-.4 1.5-.9 1.5-1 0-1.1-1.4-.1-2.3.9-1 1-.9 1 .8zm0 16c0 .8-.4 1.2-.9.9-.5-.3-.6-1-.3-1.5.9-1.3 1.2-1.1 1.2.6zm-.1 6c.2 3.9-.4 4.1-1.1.5-.4-1.9.1-4 .8-4 .1 0 .3 1.6.3 3.5zm-.3 82c-.3.9-.8 1.4-1 1.1-.3-.3-.2-.9.2-1.5.9-1.6 1.5-1.3.8.4zm.3 12.1c0 1.3-.2 2.2-.5 1.9-.3-.3-.6-1.7-.7-3.1 0-1.3.2-2.2.5-1.9.3.3.6 1.7.7 3.1z"/><path d="M398.6 102.5c-.9 2.6-.7 3.2.5 1.2.6-1 .9-2.1.6-2.3-.2-.3-.7.2-1.1 1.1zM398.3 125.5c0 .8.4 1.2.9.9.5-.3.6-1 .3-1.5-.9-1.3-1.2-1.1-1.2.6z"/></svg>