<svg version="1" xmlns="http://www.w3.org/2000/svg" width="533.333" height="533.333" viewBox="0 0 400.000000 400.000000"><path d="M46.5 81.9c-4.8 2.2-7.9 5.4-10 10.3-1.3 3.3-1.5 16.1-1.5 108 0 99.3.1 104.5 1.9 108.3 4.2 9.1 9.7 11.5 26.1 11.5h12v-98h35v-40H75V80H62.8c-9.8 0-13.1.4-16.3 1.9zM124 200v120h40V80h-40v120zM179 125.7c.1.5 8.5 34.1 18.9 74.8l18.7 74 21.2.3c11.7.1 21.2.1 21.2-.1s-8.5-33.8-19-74.6c-10.4-40.9-19-74.5-19-74.7 0-.2-9.4-.4-21-.4-11.5 0-21 .3-21 .7zM259.4 127.2c.3 1.3 9.1 34.9 19.4 74.8l18.9 72.5 20.7.3 20.6.2-.6-2.7c-.4-1.4-9.6-35.1-20.4-74.7l-19.7-72.1-19.7-.3-19.8-.2.6 2.2zM333.4 126.7c.3 1 5 18 10.6 37.8 5.5 19.8 10.4 36.9 10.9 38 .9 2.3-.1 5.6 13.1-41.5 5-17.9 9.3-33.3 9.6-34.3.5-1.6-1-1.7-22.1-1.7s-22.6.1-22.1 1.7z"/></svg>